<svg width="766" height="709" viewBox="0 0 766 709" fill="none" xmlns="http://www.w3.org/2000/svg">
<path d="M615.079 48.6659C613.723 44.6614 596.723 31.0489 607.14 28.7609L615.683 40.1564L654.959 0.865082L658.91 4.81688L615.079 48.6659Z" fill="#6C63FF"/>
<path d="M615.079 182.273C613.723 178.268 596.723 164.656 607.14 162.368L615.683 173.764L654.959 134.472L658.91 138.424L615.079 182.273Z" fill="#6C63FF"/>
<path d="M615.079 317.789C613.723 313.784 596.723 300.172 607.14 297.884L615.683 309.279L654.959 269.988L658.91 273.94L615.079 317.789Z" fill="#6C63FF"/>
<path d="M578.911 208.228C585.605 208.228 591.031 202.799 591.031 196.103C591.031 189.407 585.605 183.978 578.911 183.978C572.218 183.978 566.791 189.407 566.791 196.103C566.791 202.799 572.218 208.228 578.911 208.228Z" fill="#3F3D56"/>
<path d="M578.911 76.0683C585.605 76.0683 591.031 70.6399 591.031 63.9436C591.031 57.2473 585.605 51.8189 578.911 51.8189C572.218 51.8189 566.791 57.2473 566.791 63.9436C566.791 70.6399 572.218 76.0683 578.911 76.0683Z" fill="#3F3D56"/>
<path d="M889.786 36.0567H694.656V38.4817H889.786V36.0567Z" fill="#3F3D56"/>
<path d="M584.971 349.11C591.665 349.11 597.091 343.681 597.091 336.985C597.091 330.289 591.665 324.86 584.971 324.86C578.278 324.86 572.851 330.289 572.851 336.985C572.851 343.681 578.278 349.11 584.971 349.11Z" fill="#3F3D56"/>
<path d="M889.786 169.664H694.656V172.089H889.786V169.664Z" fill="#3F3D56"/>
<path d="M889.786 305.179H694.656V307.604H889.786V305.179Z" fill="#3F3D56"/>
<path d="M645.69 335.855H585.09V274.019H626.298V276.443H587.514V333.43H643.266V305.543H645.69V335.855Z" fill="#3F3D56"/>
<path d="M645.69 200.058H585.09V138.222H626.298V140.647H587.514V197.633H643.266V169.746H645.69V200.058Z" fill="#3F3D56"/>
<path d="M645.69 61.836H585.09V0H626.298V2.42494H587.514V59.4111H643.266V31.5243H645.69V61.836Z" fill="#3F3D56"/>
<path d="M250.029 220.393C250.029 220.393 233.834 288.802 253.629 288.802C273.423 288.802 320.211 211.392 320.211 211.392L304.015 191.589L274.946 231.964L273.423 211.392L250.029 220.393Z" fill="#A0616A"/>
<path d="M315.895 214.366C324.597 214.366 331.651 207.309 331.651 198.604C331.651 189.898 324.597 182.841 315.895 182.841C307.193 182.841 300.139 189.898 300.139 198.604C300.139 207.309 307.193 214.366 315.895 214.366Z" fill="#A0616A"/>
<path d="M236.298 686.317L257.269 686.316L267.247 605.388L236.293 605.389L236.298 686.317Z" fill="#A0616A"/>
<path d="M235.559 708.204L300.052 708.202V707.386C300.052 700.725 297.407 694.338 292.699 689.629C287.992 684.92 281.607 682.274 274.949 682.273H274.948L263.167 673.333L241.187 682.275L235.558 682.275L235.559 708.204Z" fill="#2F2E41"/>
<path d="M10.7018 660.141L29.4671 669.509L74.5191 601.556L46.8228 587.728L10.7018 660.141Z" fill="#A0616A"/>
<path d="M0.27034 679.394L57.9771 708.204L58.3413 707.474C61.3139 701.515 61.7985 694.618 59.6886 688.301C57.5787 681.984 53.0471 676.765 47.0905 673.79L47.0891 673.79L40.5395 660.527L16.8812 658.708L11.8438 656.194L0.27034 679.394Z" fill="#2F2E41"/>
<path d="M100.704 344.497C100.704 344.497 92.3231 445.312 90.5237 466.915C89.2897 480.457 86.2641 493.775 81.5261 506.52C81.5261 506.52 77.927 513.721 77.927 520.922L37.1377 595.082C37.1377 595.082 24.6733 604.247 26.4728 611.448C28.2723 618.649 18.9579 622.968 18.9579 622.968L61.9127 631.251C61.9127 631.251 60.1132 625.85 65.5118 624.05C70.9103 622.249 75.2077 606.635 75.2077 606.635L135.512 508.321L178.7 418.309C178.7 418.309 203.894 499.319 209.292 508.321C209.292 508.321 229.087 609.134 232.686 618.135C236.285 627.136 238.085 627.136 236.285 630.737C234.485 634.337 234.485 637.938 236.285 639.738C238.085 641.538 272.275 639.738 272.275 639.738L263.278 511.921L247.082 358.901L164.304 333.697L100.704 344.497Z" fill="#2F2E41"/>
<path d="M181.749 103.826C202.62 103.826 219.539 86.9001 219.539 66.021C219.539 45.1419 202.62 28.216 181.749 28.216C160.878 28.216 143.959 45.1419 143.959 66.021C143.959 86.9001 160.878 103.826 181.749 103.826Z" fill="#A0616A"/>
<path d="M250.681 159.074L205.695 131.807C205.695 131.807 204.448 114.875 191.63 114.079C185.195 113.679 175.538 113.067 161.046 112.132C157.983 111.935 155.916 128.697 152.406 128.47L104.92 141.072L112.118 263.488C112.118 263.488 101.321 312.094 104.92 321.095C108.519 330.097 95.9222 333.697 99.5212 335.497C103.12 337.298 99.5212 349.899 99.5212 349.899C99.5212 349.899 169.703 385.904 247.082 358.9L239.884 335.497C240.864 332.438 241.047 329.179 240.417 326.029C239.788 322.879 238.365 319.942 236.285 317.495C236.285 317.495 243.483 306.694 234.485 297.692C234.485 297.692 238.084 281.49 229.087 274.289L227.287 249.086L232.686 236.484L250.681 159.074Z" fill="#E6E6E6"/>
<path d="M148.957 87.618L147.9 85.1634C147.764 84.8461 134.4 53.2401 146.246 33.7447C151.729 24.7192 161.7 19.6237 175.881 18.6006C198.069 16.9957 213.255 22.2611 221.029 34.2396C222.332 36.2697 223.065 38.6137 223.15 41.0251C223.234 43.4364 222.668 45.826 221.51 47.9427C220.353 50.0594 218.646 51.825 216.571 53.0538C214.495 54.2826 212.127 54.9292 209.715 54.9256H209.417L205.34 49.6299L205.102 50.145C203.626 53.3396 200.237 55.0884 196.266 54.7054C195.591 54.6569 194.993 55.24 194.512 56.488C194.351 57.0339 194.045 57.5262 193.628 57.9132C193.21 58.3002 192.696 58.5676 192.14 58.6874C189.206 59.2587 185.025 55.5621 183.153 53.7197C183.081 54.1437 182.918 54.5473 182.677 54.9032C182.435 55.259 182.12 55.5588 181.753 55.7823C179.78 56.9208 176.711 55.4336 175.829 54.96C168.81 56.4519 164.266 56.0529 162.32 53.7754C161 63.1158 158.168 79.9281 154.772 80.86C154.417 80.9417 154.045 80.907 153.711 80.761C153.377 80.6151 153.099 80.3656 152.918 80.0495C152.1 78.9874 151.37 78.4581 150.913 78.6067C149.808 78.9584 149.156 82.5982 149.063 84.9474L148.957 87.618Z" fill="#2F2E41"/>
<path d="M230.886 160.874L248.838 157.957C261.769 170.386 270.578 186.485 274.075 204.08C279.474 232.884 281.273 238.285 281.273 238.285L238.085 249.086L214.691 204.08L230.886 160.874Z" fill="#E6E6E6"/>
<path d="M151.231 198.339L140.138 339.027L423.24 361.368L434.334 220.68L151.231 198.339Z" fill="white"/>
<path d="M181.477 209.239C174.549 204.29 165.753 203.932 162.392 204.003C163.418 207.204 166.603 215.414 173.531 220.366C180.476 225.328 189.262 225.675 192.617 225.605C191.592 222.405 188.406 214.192 181.477 209.239Z" fill="#6C63FF"/>
<path d="M208.808 298.762L163.35 295.174C162.007 295.068 160.656 295.228 159.374 295.644C158.093 296.061 156.906 296.725 155.881 297.601C154.857 298.476 154.014 299.544 153.402 300.745C152.79 301.946 152.421 303.256 152.315 304.599C152.209 305.943 152.369 307.295 152.785 308.577C153.201 309.859 153.865 311.046 154.74 312.071C155.615 313.096 156.683 313.939 157.884 314.551C159.084 315.163 160.393 315.533 161.736 315.639V315.639L207.194 319.226C209.907 319.44 212.594 318.567 214.663 316.8C216.732 315.032 218.015 312.515 218.229 309.801C218.443 307.087 217.571 304.4 215.804 302.329C214.037 300.259 211.521 298.976 208.808 298.762V298.762Z" fill="#6C63FF"/>
<path d="M423.173 207.005L168.304 186.89C165.339 186.657 162.358 187.01 159.53 187.929C156.702 188.848 154.082 190.315 151.821 192.247C149.56 194.179 147.701 196.538 146.351 199.188C145.001 201.839 144.186 204.73 143.953 207.695L134.151 331.914C133.68 337.905 135.606 343.838 139.507 348.408C143.407 352.979 148.962 355.812 154.951 356.286L409.82 376.401C412.784 376.635 415.766 376.282 418.594 375.363C421.422 374.443 424.041 372.976 426.303 371.044C428.564 369.112 430.423 366.754 431.773 364.103C433.123 361.452 433.938 358.562 434.171 355.596L443.486 237.531L443.673 235.119L443.97 231.366C444.203 228.4 443.85 225.418 442.932 222.588C442.013 219.759 440.546 217.139 438.615 214.876C436.684 212.614 434.326 210.755 431.677 209.404C429.027 208.054 426.138 207.239 423.173 207.005V207.005ZM415.647 315.082L414.032 335.547C413.737 339.161 412.023 342.512 409.266 344.866C406.508 347.22 402.931 348.386 399.317 348.109L365.219 345.421C361.606 345.126 358.257 343.412 355.904 340.653C353.551 337.894 352.385 334.316 352.662 330.7L354.277 310.235C354.573 306.621 356.287 303.272 359.045 300.918C361.802 298.564 365.378 297.397 368.992 297.673L403.078 300.364C406.691 300.66 410.04 302.374 412.395 305.132C414.749 307.889 415.918 311.466 415.647 315.082V315.082ZM150.059 304.411C150.324 301.1 151.891 298.028 154.416 295.871C156.941 293.714 160.219 292.646 163.53 292.904L208.986 296.493C210.628 296.62 212.229 297.069 213.698 297.815C215.166 298.562 216.473 299.59 217.544 300.842C218.615 302.093 219.429 303.544 219.939 305.11C220.45 306.677 220.646 308.329 220.518 309.971C220.39 311.614 219.94 313.215 219.193 314.683C218.446 316.152 217.417 317.459 216.165 318.529C214.913 319.599 213.462 320.412 211.896 320.922C210.329 321.431 208.678 321.626 207.036 321.497L207.013 321.503L161.556 317.913C159.915 317.783 158.315 317.331 156.848 316.582C155.381 315.833 154.077 314.802 153.009 313.548C151.941 312.293 151.131 310.841 150.625 309.273C150.118 307.705 149.926 306.053 150.059 304.411V304.411ZM159.791 203.192L159.48 201.92L160.788 201.8C161.299 201.745 173.391 200.659 182.803 207.385C192.216 214.111 195.102 225.913 195.228 226.406L195.527 227.681L194.222 227.813C192.37 227.951 190.51 227.938 188.66 227.776C182.776 227.432 177.092 225.511 172.203 222.216C162.791 215.49 159.904 203.688 159.791 203.192V203.192Z" fill="#6C63FF"/>
<path d="M377.408 328.654L362.634 327.489C361.58 327.407 360.537 327.748 359.734 328.435C358.931 329.122 358.433 330.1 358.35 331.154C358.267 332.208 358.605 333.252 359.291 334.057C359.976 334.862 360.953 335.362 362.007 335.447L376.78 336.613C377.834 336.694 378.877 336.354 379.681 335.666C380.484 334.979 380.982 334.001 381.065 332.947C381.148 331.893 380.809 330.849 380.124 330.044C379.438 329.239 378.461 328.739 377.408 328.654V328.654Z" fill="#6C63FF"/>
<path d="M404.683 330.807L389.909 329.641C388.855 329.56 387.813 329.901 387.01 330.588C386.208 331.276 385.71 332.253 385.627 333.307C385.544 334.361 385.882 335.404 386.567 336.209C387.252 337.014 388.228 337.514 389.281 337.599L404.055 338.765C405.109 338.846 406.151 338.505 406.953 337.818C407.756 337.13 408.253 336.153 408.337 335.099C408.42 334.045 408.082 333.002 407.397 332.197C406.712 331.393 405.736 330.893 404.683 330.807V330.807Z" fill="#6C63FF"/>
<path d="M378.215 318.422L363.441 317.256C362.387 317.176 361.345 317.517 360.542 318.204C359.74 318.891 359.242 319.869 359.159 320.922C359.076 321.976 359.414 323.02 360.099 323.824C360.784 324.629 361.76 325.129 362.813 325.215L377.587 326.381C378.641 326.462 379.684 326.122 380.487 325.434C381.291 324.747 381.788 323.769 381.871 322.715C381.955 321.661 381.616 320.617 380.931 319.812C380.245 319.007 379.268 318.507 378.215 318.422V318.422Z" fill="#6C63FF"/>
<path d="M405.49 320.575L390.716 319.409C389.662 319.328 388.619 319.668 387.815 320.355C387.012 321.042 386.514 322.02 386.431 323.075C386.348 324.129 386.687 325.173 387.372 325.978C388.058 326.782 389.034 327.282 390.088 327.367L404.862 328.533C405.916 328.614 406.959 328.274 407.762 327.587C408.565 326.899 409.063 325.921 409.146 324.867C409.23 323.813 408.891 322.769 408.206 321.964C407.52 321.159 406.543 320.66 405.49 320.575V320.575Z" fill="#6C63FF"/>
<path d="M379.021 308.19L364.248 307.024C363.194 306.943 362.151 307.283 361.347 307.97C360.544 308.658 360.046 309.636 359.963 310.69C359.88 311.744 360.218 312.788 360.904 313.593C361.59 314.398 362.566 314.898 363.62 314.983L378.394 316.148C379.447 316.229 380.49 315.888 381.292 315.201C382.095 314.514 382.592 313.536 382.675 312.482C382.759 311.429 382.421 310.385 381.736 309.58C381.051 308.776 380.074 308.276 379.021 308.19V308.19Z" fill="#6C63FF"/>
<path d="M406.296 310.342L391.522 309.177C390.469 309.096 389.427 309.437 388.624 310.124C387.821 310.811 387.324 311.789 387.241 312.843C387.158 313.896 387.496 314.94 388.181 315.745C388.866 316.549 389.842 317.049 390.895 317.135L405.669 318.301C406.722 318.381 407.765 318.041 408.567 317.353C409.37 316.666 409.867 315.688 409.95 314.635C410.033 313.581 409.695 312.538 409.01 311.733C408.325 310.928 407.349 310.428 406.296 310.342V310.342Z" fill="#6C63FF"/>
<path d="M140.164 246.89L139.974 249.308L439.157 272.82L439.347 270.401L140.164 246.89Z" fill="white"/>
<path d="M443.673 235.119L443.485 237.532L433.073 236.714L322.136 227.997L322.336 225.581L433.261 234.302L443.673 235.119Z" fill="#3F3D56"/>
<path d="M77.927 209.481C77.927 209.481 61.7313 277.89 81.526 277.89C101.321 277.89 148.108 200.479 148.108 200.479L131.913 180.677L102.843 221.052L101.321 200.479L77.927 209.481Z" fill="#A0616A"/>
<path d="M143.793 203.453C152.494 203.453 159.549 196.396 159.549 187.691C159.549 178.986 152.494 171.929 143.793 171.929C135.091 171.929 128.037 178.986 128.037 187.691C128.037 196.396 135.091 203.453 143.793 203.453Z" fill="#A0616A"/>
<path d="M118.029 151.873L107.232 141.072C107.232 141.072 85.6373 153.673 83.8378 166.275C82.0382 178.877 73.0406 218.482 73.0406 218.482L106.332 221.182L117.129 204.98L118.029 151.873Z" fill="#E6E6E6"/>
</svg>
